/* XPM */
static char *netbsd[] = {
/* width height num_colors chars_per_pixel */
"56 52 5 1 XPMEXT",
/* colors */
"  c None",
"# c #000000",
"* c #555555",
"+ c #aaaaaa",
". c #ffffff",
/* pixels */
"                  +.               +                    ",
"                *..                 .                   ",
"               *..+                 ++                  ",
"               +..*                 +.*                 ",
"              *..+**                *++*                ",
"              +.+**.+**  ++++       *.+**               ",
"              ..+**##*.*+++++++     *.+**               ",
"              ..**++##.+++##****   *...+**              ",
"              *..+##.#..##..##*****...++**              ",
"               *+#..#..#..##.##++.....++**              ",
"               +#...#.##....#.#*+.....++*#              ",
"               #....#.#.....#....+...++**#              ",
"              +#....#.#......#.+++++++**#               ",
"              #..##.#.###....#..++*****#                ",
"              #.####.#####...#...+++**#                 ",
"             +#.#.##.##.##...#...++++*                  ",
"             .#.#+##.##.##...#....+++**                 ",
"    .       +.*###########..#.....+++**                 ",
"    .+      ...*###...###..#*.....+++*#                 ",
"      +    +.....#.....####*+++...+++*#                 ",
"  ..  ++   +.....#....#*.........+++**                  ",
"   .   +    +.##..####**.........+++*#                  ",
"    +  .     +..##........#####.+++**                   ",
".+   +..      *.++#.....###++..+++**#                   ",
" .    ++.      *+++######++...+++**#                    ",
"  +  .+*+.      *++++++++...+*****#                     ",
"   +++  +*++.*#   *+++*...+++++**#                      ",
"         **...*     *.........++**                      ",
"        +..*.*#*   +...........++**                     ",
"        ...*##+** ++............+***                    ",
"        *.+*#*+++*#..####....+..++***                   ",
"          ####++*++##+..+########++**                   ",
"  ....    ....#**+**.....#.......##**  ..... ........+  ",
"   +..     #.#**++***.....#..###...## .. ...  ..    ... ",
"   ....    ..#*********####..#.+#..##..    .  ..     .. ",
"   ....    ..#*########.###..#++#..# ..    .  ..     ...",
"  +.....   .    ######..##...#+#...# ...     ...     ...",
"  +. ...  ..   ...##.....#..###...## ....    ..      ...",
"  ..  ..  .. .. #..##..###......##### ....   ..      ...",
"  ..  ... .. .. #..##..###..###..#***# ....  ..      .. ",
" +..   .... ..  ..##...##...#+*#..##++# ... ...     ... ",
" ..    .... ....  ##..###...#++#..#.#+++#.. ..      ..+ ",
" ..     ... ..    .#..###..####...#.###.#..#..    ....  ",
" ..     ..  ...  . #..#.#..###...# ...##..##..# ....    ",
"....     .   ....  ##..#........## ......##.......##**  ",
"           ######+++###########***     ##+*#######+.++* ",
"         ......+..######+++++++++*#       #..#***.....+*",
"        +.....+++#.....+...++++****     *+...#   ####.++",
"         +++++++#+....++++++++++***   *++....+++++++.+++",
"          ****#*+#+++++++***++***#   +.+....+***+++++++*",
"                  ##********#          #**#*++###****#*#",
"                                           ##*+#    ### ",
"XPMEXT copyright",
"BSD Daemon Copyright 1988 by Marshall Kirk McKusick."
"XPMEXT copyright_long",
"BSD Daemon image, used for NetBSD boot by permission.",
"",
"BSD Daemon Copyright 1988 by Marshall Kirk McKusick.",
"All Rights Reserved.",
"",
"Permission to use the daemon may be obtained from:",
"    Marshall Kirk McKusick",
"    1614 Oxford St",
"    Berkeley, CA 94709-1608",
"    USA",
"or via email at mckusick@mckusick.com",
"XPMEXT rcsid $NetBSD: netbsd.xpm,v 1.1.4.2 2002/02/28 04:12:38 nathanw Exp $",
"XPMENDEXT"
};
